Coordinates
version=1
nRows=11
nColumns=32
inDegrees=yes

Units are S.I. units (second, meters, Newtons, ...)
Angles are in degrees.
endheader
time	lower_torso_RX	lower_torso_RY	lower_torso_RZ	lower_torso_TX	lower_torso_TY	lower_torso_TZ	lumbar_pitch	lumbar_roll	lumbar_yaw	hip_flex_r	hip_add_r	hip_rot_r	knee_flex_r	tib_pat_r_r3	tib_pat_r_tx	tib_pat_r_ty	tib_pat_r_tz	ankle_flex_r	subt_angle_r	toe_angle_r	hip_flex_l	hip_add_l	hip_rot_l	knee_flex_l	tib_pat_l_r3	tib_pat_l_tx	tib_pat_l_ty	tib_pat_l_tz	ankle_flex_l	subt_angle_l	toe_angle_l
3.89000000000000010000	-4.15250120999999960000	-5.71119436000000040000	-15.30740216000000100000	-0.14268682999999999000	0.66203389000000001000	-0.19388801999999999000	7.49665579000000020000	4.27283220999999980000	13.48983834999999900000	8.03092256000000050000	6.28682974999999990000	25.12390067000000100000	31.31071539999999900000	9.10231390233124140000	0.04103992634692835800	-0.01962705753800210800	0.00219691669626343640	16.49126251999999900000	4.79133046000000020000	0.00000000000000000000	43.26007302000000000000	-1.86895715999999990000	15.15800565000000000000	27.99454766999999900000	8.26086791374609500000	0.04073322580130645000	-0.01932426456291920200	-0.00214957326773124700	-2.16263527000000000000	-5.05765805999999960000	0.00000000000000000000
3.89999999999999990000	-3.95797732999999980000	-6.39270969000000020000	-15.64725857000000000000	-0.13451219000000000000	0.66145851000000000000	-0.19388284000000000000	7.87506980000000030000	3.70839996999999990000	13.69767417000000100000	8.52111481999999930000	6.02997901999999990000	25.26651558000000000000	32.69928018000000200000	9.43789501126892110000	0.04078424598389392800	-0.01957602582037639900	0.00219691669626343640	15.58234858000000000000	5.26101712999999990000	0.00000000000000000000	43.64569816000000200000	-1.42795125000000000000	14.88299660000000000000	29.77433737000000100000	8.71958708640194760000	0.04042666760214939200	-0.01925963926297752000	-0.00214957326773124700	-0.61614641000000003000	-5.84623662999999990000	0.00000000000000000000
3.91000000000000010000	-3.57988277000000020000	-6.83808546000000030000	-15.94760716000000000000	-0.12650718000000000000	0.66138799000000004000	-0.19420639000000001000	8.23306844999999930000	3.04560203000000000000	13.77901642000000000000	9.03473538999999980000	5.63019754000000020000	25.20589654000000100000	34.06505466000000100000	9.75861148440715450000	0.04052800194546610900	-0.01952614920569465200	0.00219691669626343640	14.38705507000000100000	5.62467643000000010000	0.00000000000000000000	43.80860581999999700000	-0.85144038000000000000	14.59311357000000000000	31.02833135999999900000	9.03287692104597180000	0.04020580320563089900	-0.01921428336005233700	-0.00214957326773124700	0.56334477000000005000	-6.28937541999999980000	0.00000000000000000000
3.91999999999999990000	-3.01416931000000020000	-7.04232233000000020000	-16.18941861000000100000	-0.11859434000000001000	0.66192171000000000000	-0.19470216000000001000	8.55844328999999960000	2.29293754000000010000	13.73219055000000000000	9.53361798999999980000	5.08341102999999970000	24.90902154000000100000	35.35739193999999900000	10.05371572718315300000	0.04028125412508951100	-0.01947929945108043900	0.00219691669626343640	12.91095248000000100000	5.88772069000000010000	0.00000000000000000000	43.67619993000000300000	-0.14418233999999999000	14.32814183000000000000	31.71000632999999900000	9.19980680645661230000	0.04008407344329363600	-0.01918970828660894800	-0.00214957326773124700	1.38286099999999990000	-6.44697563999999980000	0.00000000000000000000
3.93000000000000020000	-2.29702157000000010000	-7.03984317000000010000	-16.36069606999999900000	-0.11069659000000000000	0.66306248999999995000	-0.19528651000000000000	8.84830260000000020000	1.47254756000000000000	13.56374291999999900000	9.98761805000000000000	4.40880154999999970000	24.35685254999999900000	36.53772835000000200000	10.31627814559443800000	0.04005230507169980900	-0.01943684744501023400	0.00219691669626343640	11.17535276000000100000	6.06650725999999980000	0.00000000000000000000	43.24221287999999700000	0.67174071000000002000	14.12731878000000000000	31.85942800000000100000	9.23608309323718400000	0.04005723481889465100	-0.01918433006684243400	-0.00214957326773124700	1.90852263999999990000	-6.40879875999999980000	0.00000000000000000000
3.93999999999999990000	-1.49548309000000000000	-6.88858856999999960000	-16.47171861000000000000	-0.10275999000000000000	0.66465118000000001000	-0.19597307000000000000	9.10758056999999970000	0.61945784000000004000	13.28818323000000000000	10.38437206000000000000	3.64007403000000010000	23.54957393000000100000	37.57991833999999900000	10.54268505203195100000	0.03984734442584336000	-0.01939966411108745600	0.00219691669626343640	9.21544716000000010000	6.18778007999999960000	0.00000000000000000000	42.54835108999999700000	1.55753866000000010000	14.02569609000000000000	31.56812358000000200000	9.16525645445612550000	0.04010950622500114600	-0.01919481809672445700	-0.00214957326773124700	2.22562054999999990000	-6.26418421999999970000	0.00000000000000000000
3.95000000000000020000	-0.68682304999999999000	-6.64660462999999970000	-16.55590473000000200000	-0.09473779000000000200	0.66647005999999998000	-0.19680431000000001000	9.34623743000000040000	-0.22203635999999999000	12.92691961000000100000	10.73637527000000000000	2.81564116000000020000	22.50785078999999900000	38.47038064000000200000	10.73216777133132300000	0.03967016196728471300	-0.01936813831065988300	0.00219691669626343640	7.07836975000000020000	6.28642658999999960000	0.00000000000000000000	41.66095907999999800000	2.46467319000000010000	14.04669981000000000000	30.94046151999999900000	9.01118720906102410000	0.04022140943944577100	-0.01921745558950170200	-0.00214957326773124700	2.40990841999999980000	-6.08130602000000040000	0.00000000000000000000
3.96000000000000000000	0.06620824000000000200	-6.35317812999999990000	-16.65536923000000200000	-0.08669259999999999500	0.66836194999999998000	-0.19783592000000000000	9.57586945000000080000	-1.00431847000000010000	12.50651927000000000000	11.07921251000000000000	1.97157929999999990000	21.26934148999999900000	39.21091003000000100000	10.88700610148103600000	0.03952138141879573500	-0.01934210487184131000	0.00219691669626343640	4.82109174999999990000	6.40201818999999970000	0.00000000000000000000	40.65370234000000200000	3.34351382000000010000	14.19479656000000000000	30.06965921000000100000	8.79409856245775150000	0.04037501277725259700	-0.01924894224151028200	-0.00214957326773124700	2.51487968000000000000	-5.90088666000000030000	0.00000000000000000000
3.97000000000000020000	0.72978670999999995000	-6.02530298000000020000	-16.80235562000000000000	-0.07878583000000000100	0.67024041999999995000	-0.19913263000000000000	9.80647674000000080000	-1.68353875000000010000	12.05651195000000100000	11.45868750000000000000	1.13809381000000000000	19.88182120000000100000	39.82507015000000200000	11.01355805045686700000	0.03939701251291159700	-0.01932064822284185200	0.00219691669626343640	2.50755515000000000000	6.57486322000000010000	0.00000000000000000000	39.59796971000000100000	4.15256034000000000000	14.45267273000000000000	29.03605311999999800000	8.53132615984407570000	0.04055482426676972100	-0.01928641691212781800	-0.00214957326773124700	2.57249322000000010000	-5.74156468999999970000	0.00000000000000000000
3.98000000000000000000	1.29457895000000000000	-5.66892344000000040000	-17.00821046000000100000	-0.07111040999999999900	0.67204059999999999000	-0.20069817000000001000	10.04402292000000000000	-2.22633545000000010000	11.60699405000000100000	11.91341491000000000000	0.33798930999999999000	18.39556466999999900000	40.36427650000000300000	11.12328720012151500000	0.03928709696840406600	-0.01930191494596885900	0.00219691669626343640	0.20463529999999999000	6.84193075000000040000	0.00000000000000000000	38.55701847000000300000	4.86699150000000010000	14.78419341000000000000	27.91722152999999900000	8.24055820757812010000	0.04074635884796075400	-0.01932707729020093400	-0.00214957326773124700	2.60138996000000010000	-5.60977610000000040000	0.00000000000000000000
3.99000000000000020000	1.76190694000000000000	-5.29277531999999960000	-17.26494307000000100000	-0.06366175999999999800	0.67368503000000002000	-0.20244570000000001000	10.28920444000000100000	-2.61480199000000010000	11.18628640999999900000	12.46448365000000000000	-0.41415380000000002000	16.85728435000000000000	40.90633383000000100000	11.23231043917588300000	0.03917592280315537700	-0.01928318185025080000	0.00219691669626343640	-2.02295420000000000000	7.23267527999999960000	0.00000000000000000000	37.57858083000000000000	5.48041203000000010000	15.14184279000000000000	26.79377196000000100000	7.94186491541289820000	0.04093540025516739100	-0.01936797367477807700	-0.00214957326773124700	2.61635887999999990000	-5.50772031999999980000	0.00000000000000000000
